<svg version="1.1" id="Layer_1" xmlns="http://www.w3.org/2000/svg"
     xmlns:xlink="http://www.w3.org/1999/xlink" x="0px" y="0px"
     viewBox="0 0 824.5 258.6" style="enable-background:new 0 0 824.5 258.6;" xml:space="preserve">
<style type="text/css">
    .st0 {
        fill: #00A651;
    }

    .st1 {
        fill: #ED1C24;
    }
</style>
    <g>
                    <path class="st0" d="M794,90.3c-0.7,1.3-1.8,1.7-3.3,1.7c-4.8-0.1-9.5,0-14.3,0c-2.2,0-3,0.8-3,3.1c0,4.8,0,9.6,0,14.4
		c0,2.3-0.9,3.2-3.2,3.2c-5.1,0-10.2,0-15.4,0c-2.2,0-3.1-0.9-3.1-3.1c0-4.8,0-9.5,0-14.3c0-2.4-0.8-3.2-3.2-3.2
		c-4.7,0-9.4,0-14.2,0c-2.4,0-3.4-0.9-3.4-3.3c0-5,0-10.1,0-15.1c0-2.3,1-3.2,3.3-3.2c4.5,0,9,0,13.6,0c3.2,0,3.9-0.7,3.9-4
		c0-4.2,0-8.5,0-12.7c0-1.4,0.4-2.4,1.5-3.2c6.2,0,12.5,0,18.7,0c1.2,0.9,1.5,2,1.5,3.4c-0.1,4.3,0,8.6,0,12.9
		c0,2.6,0.8,3.4,3.4,3.5c4.7,0,9.3,0,14,0c1.4,0,2.4,0.4,3.2,1.5C794,78,794,84.2,794,90.3z"/>
        <path class="st1" d="M30.5,151.9c0-9.6,0-19.2,0-28.9c0-1,0.2-1.5,1.3-1.6c4.6-0.6,9.3-1.3,13.9-2c1-0.2,1.3,0.2,1.5,1.1
		c0.4,2.2,0.8,4.3,1.2,6.5c0.1,0.3-0.1,0.8,0.4,0.9c0.3,0.1,0.5-0.3,0.8-0.5c3.2-3,6.6-5.5,10.8-6.6c8.5-2.3,20.2-1.7,25.7,6.2
		c0.6,0.9,0.9,0.7,1.5,0.1c7.1-7.5,18.3-9,27.9-6.1c6.9,2.3,10.2,7.4,11.4,14.2c1.3,10.1-0.1,20.5,0.7,30.6c0.2,1.6,1.3,2.5,2.9,2.6
		c1.2,0,2.3-0.2,3.4-0.7c1-0.4,1.4-0.2,1.7,0.9c1,3.3,2,6.7,3,10c0.3,1,0,1.4-0.8,1.7c-3.5,1.5-7.2,2.2-10.9,2.5
		c-9.8,1.1-19.5-2.4-20.8-13.4c-1.1-9.4,0-19-0.5-28.5c-0.6-4.4-4.7-6.6-8.8-4.8c-2.6,1.1-4.6,3-6.5,5c-0.5,0.5-0.4,1.2-0.4,1.8
		c0,12.4,0,24.8,0,37.1c0,1,0.3,2.4-1.2,2.3c-6.5,0-13,0-19.4,0c-1.1,0-1.2-0.6-1.2-1.5c0-5.8,0-11.5,0-17.3c0-6.8,0-13.6,0-20.4
		c0.6-4.8-3.4-9.3-8.3-7.3c-2.9,1.2-5,3.4-7.2,5.5c-0.5,0.5-0.3,1.1-0.3,1.7c0,12.7,0,25.4,0,38.1c0,0.7-0.3,1.1-1.1,1.1
		c-6.5,0-13,0-19.6,0c-1.1,0-1-0.7-1-1.5C30.5,171.3,30.5,161.6,30.5,151.9z"/>
        <path class="st1" d="M175.9,119.7c26.1-0.8,42.5,19.7,33.4,44.5c-5,12.7-18.6,18.6-31.6,18.7c-18.1,1-35.9-9.7-36.6-29.1
		C139.3,132.8,155.9,119.3,175.9,119.7z M189.1,151.8c-0.1-6.3-1-13.1-7.1-16c-13.3-5-20,5.8-18.1,19.6c0.5,7.1,5.3,13,12.8,12.5
		C185.9,168,189.2,159.5,189.1,151.8z"/>
        <path class="st1" d="M297.5,119.7c12.6-0.4,27.9,5.1,28.3,19.4c0.1,6.2-2.7,10.7-8.2,13.6c-8.7,4.4-18.6,5.4-28.1,7.4
		c-0.9,0.2-1.1,0.5-0.8,1.4c4.3,11,20.7,5.8,28.6,2c1.6-0.8,1.6-0.8,2.4,0.9c1.5,3.1,3,6.3,4.5,9.4c0.4,0.8,0.3,1.2-0.5,1.7
		c-7.6,4.6-15.9,7.2-24.8,7.5c-14.2,0.9-29.2-5.9-33-20.5C259.5,139.4,273.2,119.3,297.5,119.7z M297.9,133.7c-4.2,0-6.8,2.5-8.5,6
		c-1.1,2.4-1.6,5-1.9,7.6c-0.1,1,0.2,1,0.9,0.8c4.6-1.3,9.6-1.8,13.9-4C308,140.5,303.9,133.3,297.9,133.7z"/>
        <path class="st1" d="M252.8,155.9c0,11.2,0,22.4,0,33.7c0,4.3-1.2,8.4-4.1,11.7c-7.2,7.9-21.4,7.7-31.1,5.5c-1-0.2-1.3-0.6-1-1.6
		c1.1-3.8,2.1-7.5,3-11.3c0.3-1.1,0.8-1.3,1.8-1c1.6,0.4,3.2,0.8,4.8,0.8c3.1-0.1,4.9-1.8,4.9-4.8c0-17.1,0-34.2,0-51.3
		c0-1.1-0.4-1.4-1.4-1.3c-3.1,0.1-6.2,0-9.2,0c-1,0-1.3-0.3-1.3-1.3c0-3.8,0-7.7,0-11.5c0-0.8,0.3-1.2,1.2-1.3
		c10.4-0.8,20.7-1.5,31.1-2.3c1.3-0.1,1.4,0,1.4,1.5C252.8,132.8,252.8,144.4,252.8,155.9C252.8,155.9,252.8,155.9,252.8,155.9z"/>
        <path class="st0" d="M441.8,137.4c0-14.3,0-28.7,0-43c0-2,0-2,2-2c3,0,6.1,0,9.1,0c1.8,0,1.8,0,1.8,1.8c0,15.6,0,31.2,0,46.8
		c0,2.1,0,2.1,2.2,2.1c1.9-0.3,4.6,0.7,5.9-0.9c6.2-6.9,12.5-13.8,18.7-20.8c0.6-0.7,1.2-0.9,2.1-0.9c3.9,0,7.8,0,11.6,0
		c0.3,0,0.8-0.2,1,0.2c0.2,0.4-0.2,0.6-0.5,0.9c-5.6,6.1-11.1,12.1-16.7,18.2c-2.2,2.4-4.3,4.8-6.6,7.2c-0.7,0.8-0.6,1.3,0,2
		c7.1,9.1,14.3,18.2,21.4,27.2c1.3,1.7,2.6,3.3,3.9,5c0.2,0.2,0.5,0.4,0.3,0.7c-0.1,0.3-0.5,0.2-0.7,0.2c-4.3,0-8.6,0-13,0
		c-0.9,0-1.3-0.5-1.7-1.1c-6.7-9.1-13.4-18.2-20.1-27.3c-1.4-2-4.3-0.7-6.4-1.1c-1.1-0.1-1.4,0.4-1.4,1.5c0,8.9,0,17.9,0,26.8
		c0,0.9-0.3,1.2-1.2,1.2c-3.5,0-7,0-10.6,0c-1.1,0-1.2-0.6-1.2-1.4C441.8,166.4,441.8,151.9,441.8,137.4z"/>
        <path class="st0" d="M550.8,153c0,4.9,0,9.7,0,14.6c-0.1,3.1,0.7,6.8,4.6,6.2c1.6-0.2,3.1-0.6,4.5-1.3c0.8-0.4,1.2-0.2,1.5,0.6
		c0.7,1.9,1.5,3.7,2.2,5.6c0.2,0.5,0.3,0.9-0.3,1.3c-7.6,4.6-20.7,5.4-23.8-4.9c-0.5-1.5-0.5-1.6-1.7-0.3c-3.9,3.9-8.4,6.8-13.9,7.8
		c-9.6,2.1-21.4-1.9-22.7-12.7c-0.6-3.5-0.3-7,1.1-10.3c4.2-9.3,15.3-11.9,24.4-13.5c3.4-0.6,6.8-1.1,10.2-1.7
		c0.6-0.1,1.2-0.2,1.2-1.1c0.3-6.4-0.5-13.5-8.4-14c-7.7-0.5-14.6,2.6-21.2,6c-0.6,0.3-1,0.3-1.3-0.4c-0.9-2.1-1.9-4.1-2.9-6.2
		c-0.3-0.6-0.3-1,0.4-1.4c6-3.1,12.2-6.1,19-7.1c11.9-1.9,25.7,1.2,26.9,15.3C551.1,141.2,550.7,147.1,550.8,153z M538,158.7
		c0-1.8,0-3.7,0-5.5c0-1.4,0-1.5-1.4-1.2c-1.2,0.2-2.4,0.5-3.6,0.7c-7.4,1.5-18.4,2.6-19.1,12.1c-0.3,4.2,1.8,7.7,5.9,8.7
		c6.9,1.7,13.1-3,17.7-7.6c0.4-0.4,0.5-1,0.5-1.5C538,162.4,538,160.6,538,158.7z"/>
        <path class="st0" d="M733.4,153c0,4.7,0,9.4,0,14.1c-0.4,7.1,3.3,8,9.2,5.3c0.7-0.3,1.1-0.3,1.4,0.5c0.7,1.9,1.5,3.9,2.3,5.8
		c0.2,0.5,0.3,0.9-0.3,1.2c-7.6,4.6-20.7,5.4-23.8-4.8c-0.5-1.6-0.6-1.6-1.8-0.4c-9.4,11-33.3,12.4-36.5-4.7
		c-3.5-20.7,20.4-23.6,35.4-25.8c1.2-0.2,1.5-0.6,1.5-1.8c0.3-6.3-0.8-12.9-8.4-13.3c-6-0.4-11.4,1.4-16.7,3.9
		c-1.5,0.7-2.9,1.4-4.4,2.2c-0.6,0.3-1,0.2-1.3-0.4c-0.9-2.1-1.9-4.1-2.9-6.2c-0.3-0.6-0.2-1,0.4-1.3c6-3.1,12.1-6.1,18.9-7.1
		c11.8-2,25.7,1.2,27,15.1C733.6,141.2,733.3,147.1,733.4,153z M720.6,158.7c0-2,0-4,0-6c0-0.7-0.2-1-1-0.8
		c-5.4,1.2-11.1,1.7-16.3,3.9c-4,1.8-6.6,4.6-6.8,9.3c-0.4,7.7,7.4,10.3,13.5,7.8c4-1.5,7.1-4.2,10.1-7.1c0.4-0.4,0.5-0.9,0.5-1.4
		C720.6,162.5,720.6,160.6,720.6,158.7z"/>
        <path class="st0" d="M626.9,130.6c2.2-2.3,4.2-4.4,6.5-6.1c7.4-5.5,15.6-6.2,24-3.2c5.7,2,8.6,6.5,9.9,12.2
		c0.5,2.3,0.7,4.6,0.7,6.9c0.2,10.1-0.4,20.3,0.2,30.4c0.7,3.6,4.9,3.1,7.5,1.9c0.8-0.3,1.1-0.2,1.4,0.6c0.7,1.9,1.4,3.8,2.1,5.7
		c0.3,0.7,0.1,1.1-0.6,1.4c-4.6,2.4-9.4,3.1-14.4,2.1c-7.2-1.4-9.4-8.5-9.2-15.3c0-9,0-18.1,0-27.1c0.4-10.5-9.5-13.2-17.4-8.1
		c-3.2,2-6,4.6-8.7,7.3c-0.6,0.6-0.6,1.4-0.6,2.1c0,13.2,0,26.4,0,39.5c0.1,1.1-0.4,1.5-1.5,1.4c-3.3-0.1-6.6,0-9.8,0
		c-1.6,0-1.6,0-1.6-1.6c0-19.3,0-38.7,0-58c0-1.8,0-1.9,1.8-2.1c2.2-0.2,4.5-0.4,6.7-0.8c1.3-0.2,1.5,0.3,1.6,1.4
		C626,124.3,626.5,127.3,626.9,130.6z"/>
        <path class="st0" d="M427.5,138c0.7,12.2-12.6,15.6-22.2,17.5c-5.4,1.1-10.9,2.1-16.4,3.1c-0.6,0.1-1.3,0.2-1.1,1.1
		c0.9,3.8,2.4,7.2,5.3,9.9c8.3,7,20.4,3.4,28.8-1.5c1.5-0.9,1.5-0.9,2.2,0.7c0.9,1.8,1.7,3.7,2.6,5.5c0.4,0.8,0.3,1.3-0.5,1.8
		c-16.4,11.4-45.8,9.6-51.4-12.7c-5.9-18.2,2.9-41.1,23.7-43.3C410.7,117.8,427.7,123.6,427.5,138z M414.7,138.4
		c-0.3-12.6-19.2-12.5-24.4-1.7c-2.2,4.1-3,8.5-3.3,13.1c-0.1,1,0.4,0.9,1.1,0.8c4.3-0.9,8.6-1.8,12.9-2.7
		C406.2,146.6,414.9,145.4,414.7,138.4z"/>
        <path class="st0" d="M339.1,130.6c0-12.1,0-24.2,0-36.3c0-1.8,0-1.8,1.8-1.8c3.1,0,6.2,0,9.4,0c1.6,0,1.7,0,1.7,1.7
		c0.4,24.8-0.7,49.7,0.4,74.5c1,6.5,8.4,5.6,12.6,3.1c0.8-0.5,1.3-0.3,1.7,0.6c0.8,1.9,1.7,3.7,2.7,5.5c0.3,0.6,0.2,1-0.4,1.4
		c-3.6,2.1-7.4,3.5-11.6,3.8c-12.5,1-18.5-5.5-18.2-17.9C339.1,153.5,339.1,142,339.1,130.6z"/>
        <path class="st0" d="M582.8,130.9c0.7-0.4,1-1,1.3-1.6c5-7.7,13.3-11.6,22.3-8.8c1.5,0.4,1.5,0.6,1,2.1c-0.9,2.6-1.8,5.3-2.8,7.9
		c-0.2,0.5-0.3,1-1.1,0.7c-6-2.1-10.7,0.1-14.8,4.6c-3.8,4.5-5,5.4-4.7,11.4c0,11.1,0,22.3,0,33.4c0,1.7,0,1.7-1.7,1.7
		c-3.2,0-6.5,0-9.7,0c-1,0-1.4-0.3-1.4-1.4c0-19.6,0-39.1,0-58.7c0-1,0.4-1.4,1.4-1.5c2.5-0.3,5.1-0.6,7.6-0.9
		c0.8-0.1,0.9,0.3,1,0.9C581.8,124.2,582.3,127.5,582.8,130.9z"/>
        <path class="st1"
              d="M229.9,100c0-6.8,5.7-12.3,12.8-12.3c16.2,0.4,16.3,24.4,0,24.8C235.5,112.4,229.9,106.9,229.9,100z"/>
        <path class="st0" d="M541.7,96.9c0,0.5-0.5,0.7-0.8,0.9c-7.5,4.8-15.1,9.4-22.5,14.2c-0.9,0.6-1.4,0.5-2-0.4c-1-1.4-2-2.8-3.1-4.1
		c-0.6-0.7-0.5-1.1,0.2-1.7c3.2-2.8,6.4-5.7,9.6-8.5c3.5-3.1,6.9-6.1,10.4-9.3c0.7-0.6,1.1-0.7,1.7,0.1
		C537.2,91.1,539.6,93.9,541.7,96.9z"/>
        <path class="st0" d="M415.8,97.5c-0.1,0.5-0.5,0.7-0.8,0.9c-7.6,4.8-15.2,9.5-22.7,14.3c-0.6,0.4-1.1,0.5-1.6-0.2
		c-1.1-1.5-2.2-3-3.3-4.4c-0.6-0.7-0.4-1.2,0.2-1.7c3.5-3.1,6.9-6.2,10.4-9.3c3.2-2.8,6.4-5.7,9.6-8.5c0.7-0.7,1.1-0.6,1.7,0.2
		C411.3,91.7,413.7,94.5,415.8,97.5z"/>
                </g>
</svg>
