<svg xmlns="http://www.w3.org/2000/svg" xmlns:xlink="http://www.w3.org/1999/xlink" width="900" zoomAndPan="magnify" viewBox="0 0 675 131.249995" height="175" preserveAspectRatio="xMidYMid meet" version="1.0"><defs><g/><clipPath id="4b5b80ae98"><path d="M 1.917969 37 L 65 37 L 65 99 L 1.917969 99 Z M 1.917969 37 " clip-rule="nonzero"/></clipPath></defs><g clip-path="url(#4b5b80ae98)"><g fill="#34b878" fill-opacity="1"><g transform="translate(1.917627, 98.255372)"><g><path d="M 23.046875 0 L 0 -60.5 L 17.265625 -60.5 L 28.953125 -26.03125 C 29.597656 -24.007812 30.109375 -21.878906 30.484375 -19.640625 C 30.867188 -17.398438 31.132812 -15.398438 31.28125 -13.640625 L 31.71875 -13.640625 C 31.820312 -15.546875 32.082031 -17.582031 32.5 -19.75 C 32.914062 -21.914062 33.460938 -24.007812 34.140625 -26.03125 L 45.78125 -60.5 L 63.046875 -60.5 L 39.984375 0 Z M 23.046875 0 "/></g></g></g></g><g fill="#34b878" fill-opacity="1"><g transform="translate(62.168805, 98.255372)"><g><path d="M 33.4375 -61.75 C 41.5625 -61.75 47.785156 -59.976562 52.109375 -56.4375 C 56.441406 -52.90625 58.609375 -47.53125 58.609375 -40.3125 L 58.609375 0 L 47.078125 0 L 43.890625 -8.21875 L 43.453125 -8.21875 C 41.722656 -6.0625 39.957031 -4.296875 38.15625 -2.921875 C 36.351562 -1.546875 34.273438 -0.535156 31.921875 0.109375 C 29.578125 0.753906 26.726562 1.078125 23.375 1.078125 C 19.800781 1.078125 16.597656 0.394531 13.765625 -0.96875 C 10.941406 -2.34375 8.71875 -4.445312 7.09375 -7.28125 C 5.46875 -10.113281 4.65625 -13.710938 4.65625 -18.078125 C 4.65625 -24.492188 6.910156 -29.226562 11.421875 -32.28125 C 15.929688 -35.332031 22.695312 -37.019531 31.71875 -37.34375 L 42.203125 -37.671875 L 42.203125 -40.3125 C 42.203125 -43.488281 41.375 -45.816406 39.71875 -47.296875 C 38.0625 -48.773438 35.753906 -49.515625 32.796875 -49.515625 C 29.867188 -49.515625 27 -49.097656 24.1875 -48.265625 C 21.375 -47.441406 18.5625 -46.394531 15.75 -45.125 L 10.28125 -56.28125 C 13.488281 -57.976562 17.085938 -59.3125 21.078125 -60.28125 C 25.066406 -61.257812 29.1875 -61.75 33.4375 -61.75 Z M 42.203125 -28.03125 L 35.828125 -27.8125 C 30.484375 -27.664062 26.773438 -26.707031 24.703125 -24.9375 C 22.628906 -23.175781 21.59375 -20.851562 21.59375 -17.96875 C 21.59375 -15.4375 22.332031 -13.640625 23.8125 -12.578125 C 25.289062 -11.515625 27.21875 -10.984375 29.59375 -10.984375 C 33.132812 -10.984375 36.117188 -12.03125 38.546875 -14.125 C 40.984375 -16.21875 42.203125 -19.191406 42.203125 -23.046875 Z M 42.203125 -28.03125 "/></g></g></g><g fill="#34b878" fill-opacity="1"><g transform="translate(126.314897, 98.255372)"><g><path d="M 50.875 -17.96875 C 50.875 -13.851562 49.90625 -10.378906 47.96875 -7.546875 C 46.039062 -4.710938 43.164062 -2.566406 39.34375 -1.109375 C 35.519531 0.347656 30.757812 1.078125 25.0625 1.078125 C 20.832031 1.078125 17.210938 0.804688 14.203125 0.265625 C 11.191406 -0.273438 8.15625 -1.175781 5.09375 -2.4375 L 5.09375 -16.078125 C 8.375 -14.597656 11.898438 -13.378906 15.671875 -12.421875 C 19.441406 -11.460938 22.75 -10.984375 25.59375 -10.984375 C 28.800781 -10.984375 31.097656 -11.460938 32.484375 -12.421875 C 33.878906 -13.378906 34.578125 -14.632812 34.578125 -16.1875 C 34.578125 -17.195312 34.296875 -18.101562 33.734375 -18.90625 C 33.179688 -19.71875 31.984375 -20.640625 30.140625 -21.671875 C 28.296875 -22.703125 25.410156 -24.046875 21.484375 -25.703125 C 17.691406 -27.285156 14.578125 -28.890625 12.140625 -30.515625 C 9.710938 -32.140625 7.910156 -34.0625 6.734375 -36.28125 C 5.566406 -38.5 4.984375 -41.320312 4.984375 -44.75 C 4.984375 -50.34375 7.15625 -54.554688 11.5 -57.390625 C 15.84375 -60.222656 21.660156 -61.640625 28.953125 -61.640625 C 32.703125 -61.640625 36.28125 -61.257812 39.6875 -60.5 C 43.101562 -59.738281 46.613281 -58.53125 50.21875 -56.875 L 45.234375 -44.96875 C 42.242188 -46.269531 39.421875 -47.332031 36.765625 -48.15625 C 34.117188 -48.988281 31.425781 -49.40625 28.6875 -49.40625 C 26.269531 -49.40625 24.445312 -49.078125 23.21875 -48.421875 C 21.988281 -47.773438 21.375 -46.785156 21.375 -45.453125 C 21.375 -44.484375 21.6875 -43.617188 22.3125 -42.859375 C 22.945312 -42.097656 24.175781 -41.257812 26 -40.34375 C 27.820312 -39.425781 30.5 -38.242188 34.03125 -36.796875 C 37.457031 -35.390625 40.429688 -33.921875 42.953125 -32.390625 C 45.484375 -30.859375 47.4375 -28.960938 48.8125 -26.703125 C 50.1875 -24.453125 50.875 -21.539062 50.875 -17.96875 Z M 18.1875 -67.15625 C 17.175781 -68.8125 15.835938 -70.640625 14.171875 -72.640625 C 12.515625 -74.648438 10.800781 -76.609375 9.03125 -78.515625 C 7.269531 -80.429688 5.703125 -82.078125 4.328125 -83.453125 L 4.328125 -84.90625 L 15.3125 -84.90625 C 17.226562 -83.675781 19.285156 -82.273438 21.484375 -80.703125 C 23.679688 -79.140625 25.753906 -77.363281 27.703125 -75.375 C 29.617188 -77.363281 31.722656 -79.160156 34.015625 -80.765625 C 36.304688 -82.367188 38.425781 -83.75 40.375 -84.90625 L 51.296875 -84.90625 L 51.296875 -83.453125 C 50.003906 -82.109375 48.472656 -80.476562 46.703125 -78.5625 C 44.929688 -76.65625 43.207031 -74.691406 41.53125 -72.671875 C 39.851562 -70.648438 38.492188 -68.8125 37.453125 -67.15625 Z M 18.1875 -67.15625 "/></g></g></g><g fill="#34b878" fill-opacity="1"><g transform="translate(178.613951, 98.255372)"><g><path d="M 33.609375 -61.640625 C 39.203125 -61.640625 44.015625 -60.566406 48.046875 -58.421875 C 52.085938 -56.273438 55.207031 -53.160156 57.40625 -49.078125 C 59.613281 -45.003906 60.71875 -40.023438 60.71875 -34.140625 L 60.71875 -26.140625 L 21.703125 -26.140625 C 21.878906 -21.484375 23.273438 -17.828125 25.890625 -15.171875 C 28.503906 -12.523438 32.140625 -11.203125 36.796875 -11.203125 C 40.660156 -11.203125 44.195312 -11.597656 47.40625 -12.390625 C 50.613281 -13.179688 53.914062 -14.375 57.3125 -15.96875 L 57.3125 -3.1875 C 54.3125 -1.707031 51.175781 -0.628906 47.90625 0.046875 C 44.644531 0.734375 40.691406 1.078125 36.046875 1.078125 C 29.984375 1.078125 24.613281 -0.0351562 19.9375 -2.265625 C 15.269531 -4.503906 11.609375 -7.914062 8.953125 -12.5 C 6.304688 -17.082031 4.984375 -22.851562 4.984375 -29.8125 C 4.984375 -36.882812 6.179688 -42.773438 8.578125 -47.484375 C 10.972656 -52.191406 14.316406 -55.726562 18.609375 -58.09375 C 22.910156 -60.457031 27.910156 -61.640625 33.609375 -61.640625 Z M 33.71875 -49.890625 C 30.5 -49.890625 27.832031 -48.859375 25.71875 -46.796875 C 23.613281 -44.742188 22.398438 -41.519531 22.078125 -37.125 L 45.234375 -37.125 C 45.203125 -39.570312 44.757812 -41.753906 43.90625 -43.671875 C 43.0625 -45.585938 41.800781 -47.101562 40.125 -48.21875 C 38.445312 -49.332031 36.3125 -49.890625 33.71875 -49.890625 Z M 33.71875 -49.890625 "/></g></g></g><g fill="#34b878" fill-opacity="1"><g transform="translate(241.299455, 98.255372)"><g/></g></g><g fill="#ed1c24" fill-opacity="1"><g transform="translate(267.331467, 98.255372)"><g><path d="M 25.15625 0 L 8.65625 0 L 8.65625 -84.203125 L 25.15625 -84.203125 Z M 25.15625 0 "/></g></g></g><g fill="#ed1c24" fill-opacity="1"><g transform="translate(298.370787, 98.255372)"><g><path d="M 33.609375 -61.640625 C 39.203125 -61.640625 44.015625 -60.566406 48.046875 -58.421875 C 52.085938 -56.273438 55.207031 -53.160156 57.40625 -49.078125 C 59.613281 -45.003906 60.71875 -40.023438 60.71875 -34.140625 L 60.71875 -26.140625 L 21.703125 -26.140625 C 21.878906 -21.484375 23.273438 -17.828125 25.890625 -15.171875 C 28.503906 -12.523438 32.140625 -11.203125 36.796875 -11.203125 C 40.660156 -11.203125 44.195312 -11.597656 47.40625 -12.390625 C 50.613281 -13.179688 53.914062 -14.375 57.3125 -15.96875 L 57.3125 -3.1875 C 54.3125 -1.707031 51.175781 -0.628906 47.90625 0.046875 C 44.644531 0.734375 40.691406 1.078125 36.046875 1.078125 C 29.984375 1.078125 24.613281 -0.0351562 19.9375 -2.265625 C 15.269531 -4.503906 11.609375 -7.914062 8.953125 -12.5 C 6.304688 -17.082031 4.984375 -22.851562 4.984375 -29.8125 C 4.984375 -36.882812 6.179688 -42.773438 8.578125 -47.484375 C 10.972656 -52.191406 14.316406 -55.726562 18.609375 -58.09375 C 22.910156 -60.457031 27.910156 -61.640625 33.609375 -61.640625 Z M 33.71875 -49.890625 C 30.5 -49.890625 27.832031 -48.859375 25.71875 -46.796875 C 23.613281 -44.742188 22.398438 -41.519531 22.078125 -37.125 L 45.234375 -37.125 C 45.203125 -39.570312 44.757812 -41.753906 43.90625 -43.671875 C 43.0625 -45.585938 41.800781 -47.101562 40.125 -48.21875 C 38.445312 -49.332031 36.3125 -49.890625 33.71875 -49.890625 Z M 54.0625 -84.90625 L 54.0625 -83.765625 C 53.019531 -82.753906 51.648438 -81.507812 49.953125 -80.03125 C 48.253906 -78.550781 46.429688 -77.007812 44.484375 -75.40625 C 42.535156 -73.800781 40.625 -72.269531 38.75 -70.8125 C 36.875 -69.351562 35.234375 -68.132812 33.828125 -67.15625 L 22.84375 -67.15625 L 22.84375 -68.625 C 24.03125 -69.988281 25.410156 -71.617188 26.984375 -73.515625 C 28.554688 -75.410156 30.113281 -77.367188 31.65625 -79.390625 C 33.207031 -81.410156 34.507812 -83.25 35.5625 -84.90625 Z M 54.0625 -84.90625 "/></g></g></g><g fill="#ed1c24" fill-opacity="1"><g transform="translate(361.056288, 98.255372)"><g><path d="M 25.15625 -84.203125 L 25.15625 -46.546875 C 25.15625 -44.265625 25.066406 -41.988281 24.890625 -39.71875 C 24.710938 -37.445312 24.515625 -35.175781 24.296875 -32.90625 L 24.515625 -32.90625 C 25.628906 -34.488281 26.769531 -36.054688 27.9375 -37.609375 C 29.113281 -39.160156 30.375 -40.660156 31.71875 -42.109375 L 48.65625 -60.5 L 67.265625 -60.5 L 43.234375 -34.25 L 68.71875 0 L 49.671875 0 L 32.25 -24.515625 L 25.15625 -18.828125 L 25.15625 0 L 8.65625 0 L 8.65625 -84.203125 Z M 25.15625 -84.203125 "/></g></g></g><g fill="#ed1c24" fill-opacity="1"><g transform="translate(426.987543, 98.255372)"><g><path d="M 33.4375 -61.75 C 41.5625 -61.75 47.785156 -59.976562 52.109375 -56.4375 C 56.441406 -52.90625 58.609375 -47.53125 58.609375 -40.3125 L 58.609375 0 L 47.078125 0 L 43.890625 -8.21875 L 43.453125 -8.21875 C 41.722656 -6.0625 39.957031 -4.296875 38.15625 -2.921875 C 36.351562 -1.546875 34.273438 -0.535156 31.921875 0.109375 C 29.578125 0.753906 26.726562 1.078125 23.375 1.078125 C 19.800781 1.078125 16.597656 0.394531 13.765625 -0.96875 C 10.941406 -2.34375 8.71875 -4.445312 7.09375 -7.28125 C 5.46875 -10.113281 4.65625 -13.710938 4.65625 -18.078125 C 4.65625 -24.492188 6.910156 -29.226562 11.421875 -32.28125 C 15.929688 -35.332031 22.695312 -37.019531 31.71875 -37.34375 L 42.203125 -37.671875 L 42.203125 -40.3125 C 42.203125 -43.488281 41.375 -45.816406 39.71875 -47.296875 C 38.0625 -48.773438 35.753906 -49.515625 32.796875 -49.515625 C 29.867188 -49.515625 27 -49.097656 24.1875 -48.265625 C 21.375 -47.441406 18.5625 -46.394531 15.75 -45.125 L 10.28125 -56.28125 C 13.488281 -57.976562 17.085938 -59.3125 21.078125 -60.28125 C 25.066406 -61.257812 29.1875 -61.75 33.4375 -61.75 Z M 42.203125 -28.03125 L 35.828125 -27.8125 C 30.484375 -27.664062 26.773438 -26.707031 24.703125 -24.9375 C 22.628906 -23.175781 21.59375 -20.851562 21.59375 -17.96875 C 21.59375 -15.4375 22.332031 -13.640625 23.8125 -12.578125 C 25.289062 -11.515625 27.21875 -10.984375 29.59375 -10.984375 C 33.132812 -10.984375 36.117188 -12.03125 38.546875 -14.125 C 40.984375 -16.21875 42.203125 -19.191406 42.203125 -23.046875 Z M 54.703125 -84.90625 L 54.703125 -83.765625 C 53.660156 -82.753906 52.289062 -81.507812 50.59375 -80.03125 C 48.894531 -78.550781 47.070312 -77.007812 45.125 -75.40625 C 43.175781 -73.800781 41.265625 -72.269531 39.390625 -70.8125 C 37.515625 -69.351562 35.875 -68.132812 34.46875 -67.15625 L 23.484375 -67.15625 L 23.484375 -68.625 C 24.671875 -69.988281 26.050781 -71.617188 27.625 -73.515625 C 29.195312 -75.410156 30.753906 -77.367188 32.296875 -79.390625 C 33.847656 -81.410156 35.148438 -83.25 36.203125 -84.90625 Z M 54.703125 -84.90625 "/></g></g></g><g fill="#ed1c24" fill-opacity="1"><g transform="translate(491.133641, 98.255372)"><g><path d="M 42.421875 -61.640625 C 43.253906 -61.640625 44.21875 -61.59375 45.3125 -61.5 C 46.414062 -61.40625 47.3125 -61.289062 48 -61.15625 L 46.75 -45.671875 C 46.207031 -45.847656 45.441406 -45.984375 44.453125 -46.078125 C 43.460938 -46.171875 42.609375 -46.21875 41.890625 -46.21875 C 39.753906 -46.21875 37.6875 -45.945312 35.6875 -45.40625 C 33.6875 -44.863281 31.890625 -43.988281 30.296875 -42.78125 C 28.710938 -41.570312 27.457031 -39.984375 26.53125 -38.015625 C 25.613281 -36.046875 25.15625 -33.640625 25.15625 -30.796875 L 25.15625 0 L 8.65625 0 L 8.65625 -60.5 L 21.15625 -60.5 L 23.59375 -50.328125 L 24.40625 -50.328125 C 25.59375 -52.378906 27.078125 -54.257812 28.859375 -55.96875 C 30.648438 -57.6875 32.691406 -59.0625 34.984375 -60.09375 C 37.273438 -61.125 39.753906 -61.640625 42.421875 -61.640625 Z M 42.421875 -61.640625 "/></g></g></g><g fill="#ed1c24" fill-opacity="1"><g transform="translate(538.672257, 98.255372)"><g><path d="M 43.015625 -61.640625 C 49.472656 -61.640625 54.664062 -59.878906 58.59375 -56.359375 C 62.53125 -52.835938 64.5 -47.203125 64.5 -39.453125 L 64.5 0 L 48 0 L 48 -35.34375 C 48 -39.664062 47.210938 -42.925781 45.640625 -45.125 C 44.078125 -47.332031 41.617188 -48.4375 38.265625 -48.4375 C 33.210938 -48.4375 29.765625 -46.722656 27.921875 -43.296875 C 26.078125 -39.867188 25.15625 -34.925781 25.15625 -28.46875 L 25.15625 0 L 8.65625 0 L 8.65625 -60.5 L 21.265625 -60.5 L 23.484375 -52.765625 L 24.40625 -52.765625 C 25.707031 -54.859375 27.320312 -56.550781 29.25 -57.84375 C 31.175781 -59.144531 33.320312 -60.101562 35.6875 -60.71875 C 38.050781 -61.332031 40.492188 -61.640625 43.015625 -61.640625 Z M 43.015625 -61.640625 "/></g></g></g><g fill="#ed1c24" fill-opacity="1"><g transform="translate(608.714821, 98.255372)"><g><path d="M 0 -60.5 L 18.078125 -60.5 L 29.5 -26.46875 C 29.851562 -25.382812 30.15625 -24.28125 30.40625 -23.15625 C 30.664062 -22.039062 30.882812 -20.882812 31.0625 -19.6875 C 31.238281 -18.5 31.382812 -17.257812 31.5 -15.96875 L 31.8125 -15.96875 C 32.03125 -17.914062 32.328125 -19.734375 32.703125 -21.421875 C 33.085938 -23.117188 33.566406 -24.800781 34.140625 -26.46875 L 45.34375 -60.5 L 63.046875 -60.5 L 37.453125 7.734375 C 35.898438 11.921875 33.878906 15.410156 31.390625 18.203125 C 28.898438 21.003906 26.039062 23.109375 22.8125 24.515625 C 19.582031 25.921875 16.035156 26.625 12.171875 26.625 C 10.296875 26.625 8.671875 26.523438 7.296875 26.328125 C 5.929688 26.128906 4.757812 25.921875 3.78125 25.703125 L 3.78125 12.609375 C 4.539062 12.785156 5.5 12.945312 6.65625 13.09375 C 7.8125 13.238281 9.019531 13.3125 10.28125 13.3125 C 12.59375 13.3125 14.578125 12.820312 16.234375 11.84375 C 17.890625 10.875 19.273438 9.566406 20.390625 7.921875 C 21.515625 6.285156 22.398438 4.492188 23.046875 2.546875 L 24.03125 -0.4375 Z M 0 -60.5 "/></g></g></g></svg>